<svg width="124" height="26" viewBox="0 0 124 26" fill="none" xmlns="http://www.w3.org/2000/svg">
<path fill-rule="evenodd" clip-rule="evenodd" d="M7.11964 0.970442C5.42203 0.52428 3.69517 1.5854 3.3424 3.29286L2.4381 7.65439H10.3264V7.65609L10.4555 7.65439L11.5947 7.65609C12.6186 7.68323 13.3585 8.05475 13.5392 9.23376L14.1071 14.4596C14.2172 15.4792 14.4943 15.514 15.057 14.4596C15.6197 13.4053 17.751 9.23291 17.751 9.23291C18.2199 8.42203 18.8144 7.98944 19.4787 7.79095L19.5975 7.21586C19.9269 5.64399 18.9579 4.09099 17.3862 3.67202L7.11964 0.97129V0.970442ZM8.3655 8.50261H2.26257L2.08705 9.35083H8.00672L8.0153 9.31009C8.08587 8.981 8.20892 8.71634 8.3655 8.50261ZM1.91152 10.199L1.73599 11.0472H7.64536L7.82605 10.199H1.91152ZM7.46552 11.8955H1.56047L1.38494 12.7437H7.2857L7.46552 11.8955ZM1.20941 13.5919L1.0339 14.4402H6.88474V14.6301L7.10501 13.5919H1.20941ZM6.74536 15.2884H0.857504L0.595078 16.5607H6.47518L6.74622 15.2884H6.74536ZM0.156265 18.6812L0.0641994 19.1198C-0.26528 20.6916 0.703752 22.2446 2.27548 22.6636L12.5429 25.3652C14.2404 25.8113 15.9665 24.7502 16.321 23.0427L18.4204 12.9006L16.0456 17.3173C15.5853 18.1078 15.1964 18.6329 14.0916 18.6778C14.04 18.6804 13.8232 18.6812 13.7681 18.6812C12.5239 18.6812 12.1763 18.146 12.0533 17.3165L11.4114 11.6334C11.3366 11.1711 11.0466 11.1847 10.964 11.6334L9.5856 18.6778L6.88474 18.6812H0.156265Z" fill="#1CA345"/>
<path d="M24.1687 18.7455L26.2987 8.72548H29.8537L30.4237 15.8505L34.0387 8.72548H37.7137L35.5687 18.7455H33.2287L34.8637 11.0955L30.9037 18.7455H28.9237L28.2187 10.7505L26.5237 18.7455H24.1687ZM40.8247 18.9255C39.7747 18.9255 38.9447 18.6555 38.3347 18.1155C37.7347 17.5655 37.4347 16.7955 37.4347 15.8055C37.4347 15.1455 37.5447 14.5305 37.7647 13.9605C37.9947 13.3905 38.3147 12.8905 38.7247 12.4605C39.1347 12.0305 39.6147 11.6955 40.1647 11.4555C40.7247 11.2155 41.3347 11.0955 41.9947 11.0955C43.0647 11.0955 43.8897 11.3855 44.4697 11.9655C45.0497 12.5355 45.3397 13.3055 45.3397 14.2755C45.3397 14.4855 45.3247 14.7005 45.2947 14.9205C45.2747 15.1405 45.2347 15.3705 45.1747 15.6105H39.6997C39.6897 15.6705 39.6797 15.7255 39.6697 15.7755C39.6697 15.8255 39.6697 15.8755 39.6697 15.9255C39.6697 16.3655 39.8247 16.6805 40.1347 16.8705C40.4447 17.0605 40.7997 17.1555 41.1997 17.1555C41.4997 17.1555 41.7897 17.1105 42.0697 17.0205C42.3597 16.9205 42.5897 16.7855 42.7597 16.6155L44.4697 17.2755C44.0397 17.8055 43.5147 18.2155 42.8947 18.5055C42.2747 18.7855 41.5847 18.9255 40.8247 18.9255ZM39.9097 14.2605H43.3147C43.3247 14.2205 43.3297 14.1855 43.3297 14.1555C43.3297 14.1255 43.3297 14.0905 43.3297 14.0505C43.3297 13.6105 43.1897 13.2855 42.9097 13.0755C42.6297 12.8655 42.2997 12.7605 41.9197 12.7605C41.5197 12.7605 41.1197 12.8855 40.7197 13.1355C40.3197 13.3855 40.0497 13.7605 39.9097 14.2605ZM48.8105 21.8505C48.3105 21.8505 47.8355 21.7755 47.3855 21.6255C46.9355 21.4755 46.5505 21.2605 46.2305 20.9805C45.9105 20.7105 45.6905 20.3905 45.5705 20.0205L47.5805 19.3605C47.6505 19.5805 47.8055 19.7505 48.0455 19.8705C48.2855 20.0005 48.5505 20.0655 48.8405 20.0655C49.2305 20.0655 49.6105 19.9505 49.9805 19.7205C50.3505 19.5005 50.5855 19.1455 50.6855 18.6555L50.9555 17.3805C50.6455 17.7505 50.2955 18.0305 49.9055 18.2205C49.5155 18.4005 49.1155 18.4905 48.7055 18.4905C48.2355 18.4905 47.7905 18.3755 47.3705 18.1455C46.9605 17.9055 46.6255 17.5655 46.3655 17.1255C46.1155 16.6855 45.9905 16.1555 45.9905 15.5355C45.9905 14.9655 46.0805 14.4155 46.2605 13.8855C46.4505 13.3555 46.7155 12.8805 47.0555 12.4605C47.4055 12.0305 47.8155 11.6955 48.2855 11.4555C48.7555 11.2055 49.2705 11.0805 49.8305 11.0805C50.3105 11.0805 50.7505 11.1855 51.1505 11.3955C51.5505 11.6055 51.8455 11.9105 52.0355 12.3105L52.5455 11.3055H54.5555C54.3055 12.4955 54.0555 13.6905 53.8055 14.8905C53.5555 16.0905 53.3005 17.2855 53.0405 18.4755C52.8605 19.2755 52.5455 19.9205 52.0955 20.4105C51.6555 20.9105 51.1455 21.2755 50.5655 21.5055C49.9855 21.7355 49.4005 21.8505 48.8105 21.8505ZM49.6055 16.7805C50.0655 16.7805 50.4455 16.6605 50.7455 16.4205C51.0455 16.1705 51.2705 15.8505 51.4205 15.4605C51.5805 15.0705 51.6605 14.6605 51.6605 14.2305C51.6605 13.7605 51.5355 13.4105 51.2855 13.1805C51.0355 12.9405 50.7205 12.8205 50.3405 12.8205C49.9105 12.8205 49.5455 12.9355 49.2455 13.1655C48.9555 13.3855 48.7355 13.6805 48.5855 14.0505C48.4355 14.4205 48.3605 14.8155 48.3605 15.2355C48.3605 15.7255 48.4755 16.1055 48.7055 16.3755C48.9455 16.6455 49.2455 16.7805 49.6055 16.7805ZM56.7567 18.9255C56.3767 18.9255 56.0167 18.8505 55.6767 18.7005C55.3367 18.5405 55.0617 18.3155 54.8517 18.0255C54.6417 17.7255 54.5367 17.3755 54.5367 16.9755C54.5367 16.4155 54.6967 15.9605 55.0167 15.6105C55.3367 15.2505 55.7617 14.9655 56.2917 14.7555C56.8217 14.5455 57.3967 14.3855 58.0167 14.2755C58.6467 14.1655 59.2667 14.0805 59.8767 14.0205C59.9167 13.8705 59.9417 13.7505 59.9517 13.6605C59.9617 13.5705 59.9667 13.4955 59.9667 13.4355C59.9667 13.1455 59.8717 12.9405 59.6817 12.8205C59.4917 12.7005 59.2267 12.6405 58.8867 12.6405C58.5667 12.6405 58.2667 12.7155 57.9867 12.8655C57.7067 13.0055 57.4967 13.2255 57.3567 13.5255L55.6017 12.8355C55.9817 12.2455 56.4667 11.8105 57.0567 11.5305C57.6467 11.2405 58.3617 11.0955 59.2017 11.0955C59.7817 11.0955 60.2967 11.1855 60.7467 11.3655C61.2067 11.5355 61.5667 11.7955 61.8267 12.1455C62.0867 12.4955 62.2167 12.9305 62.2167 13.4505C62.2167 13.6505 62.1867 13.9005 62.1267 14.2005C62.0767 14.5005 62.0167 14.8005 61.9467 15.1005C61.8767 15.3905 61.8217 15.6405 61.7817 15.8505C61.7117 16.1705 61.6467 16.5155 61.5867 16.8855C61.5367 17.2555 61.4967 17.6055 61.4667 17.9355C61.4367 18.2555 61.4217 18.5255 61.4217 18.7455H59.2617L59.1867 17.8605C58.8467 18.2705 58.4867 18.5505 58.1067 18.7005C57.7367 18.8505 57.2867 18.9255 56.7567 18.9255ZM57.9267 17.3805C58.3367 17.3805 58.6867 17.2505 58.9767 16.9905C59.2767 16.7205 59.5117 16.2405 59.6817 15.5505L59.7267 15.3705C58.8867 15.4405 58.2117 15.5755 57.7017 15.7755C57.2017 15.9655 56.9517 16.2655 56.9517 16.6755C56.9517 16.8955 57.0467 17.0705 57.2367 17.2005C57.4267 17.3205 57.6567 17.3805 57.9267 17.3805Z" fill="#464646"/>
<path d="M66.33 19.0247C65.4 19.0247 64.675 18.7497 64.155 18.1997C63.645 17.6497 63.39 16.9047 63.39 15.9647C63.39 15.1147 63.555 14.3397 63.885 13.6397C64.225 12.9297 64.7 12.3597 65.31 11.9297C65.93 11.4997 66.65 11.2847 67.47 11.2847C68.15 11.2847 68.72 11.4297 69.18 11.7197C69.64 11.9997 69.995 12.4097 70.245 12.9497L69 13.3847C68.9 13.0847 68.705 12.8447 68.415 12.6647C68.125 12.4847 67.79 12.3947 67.41 12.3947C66.84 12.3947 66.36 12.5597 65.97 12.8897C65.58 13.2197 65.28 13.6497 65.07 14.1797C64.87 14.7097 64.77 15.2797 64.77 15.8897C64.77 16.4597 64.905 16.9397 65.175 17.3297C65.455 17.7197 65.935 17.9147 66.615 17.9147C67.025 17.9147 67.38 17.8297 67.68 17.6597C67.99 17.4797 68.255 17.2397 68.475 16.9397L69.54 17.3597C69.2 17.9097 68.745 18.3247 68.175 18.6047C67.615 18.8847 67 19.0247 66.33 19.0247ZM70.5318 18.8447L72.6618 8.82466H73.9518L73.1868 12.4397C73.4368 12.1197 73.7568 11.8497 74.1468 11.6297C74.5468 11.3997 75.0818 11.2847 75.7518 11.2847C76.3818 11.2847 76.8718 11.4547 77.2218 11.7947C77.5818 12.1247 77.7618 12.6447 77.7618 13.3547C77.7618 13.6947 77.7168 14.0847 77.6268 14.5247L76.6968 18.8447H75.4218L76.3068 14.6447C76.3968 14.2047 76.4418 13.8447 76.4418 13.5647C76.4418 13.1347 76.3418 12.8347 76.1418 12.6647C75.9418 12.4847 75.6268 12.3947 75.1968 12.3947C74.8368 12.3947 74.4868 12.4747 74.1468 12.6347C73.8068 12.7947 73.5018 13.0647 73.2318 13.4447C72.9718 13.8247 72.7718 14.3397 72.6318 14.9897L71.8218 18.8447H70.5318ZM80.9545 19.0247C80.3145 19.0247 79.7795 18.8497 79.3495 18.4997C78.9295 18.1497 78.7195 17.6797 78.7195 17.0897C78.7195 16.5897 78.8495 16.1747 79.1095 15.8447C79.3795 15.5147 79.7245 15.2497 80.1445 15.0497C80.5745 14.8497 81.0345 14.6997 81.5245 14.5997C82.0245 14.4897 82.5095 14.4097 82.9795 14.3597C83.4495 14.3097 83.8545 14.2647 84.1945 14.2247C84.2245 14.0847 84.2495 13.9547 84.2695 13.8347C84.2895 13.7147 84.2995 13.5997 84.2995 13.4897C84.2995 12.6997 83.8395 12.3047 82.9195 12.3047C82.4595 12.3047 82.0695 12.4097 81.7495 12.6197C81.4295 12.8197 81.1845 13.0997 81.0145 13.4597L79.8895 13.1147C80.1495 12.5547 80.5295 12.1097 81.0295 11.7797C81.5295 11.4497 82.1395 11.2847 82.8595 11.2847C83.7295 11.2847 84.3995 11.4597 84.8695 11.8097C85.3395 12.1597 85.5745 12.6997 85.5745 13.4297C85.5745 13.5997 85.5595 13.7697 85.5295 13.9397C85.5095 14.1097 85.4645 14.3497 85.3945 14.6597C85.3345 14.9697 85.2395 15.4247 85.1095 16.0247C84.9795 16.6447 84.8895 17.1847 84.8395 17.6447C84.7995 18.0947 84.7745 18.4947 84.7645 18.8447H83.5795L83.5195 17.8997C83.1895 18.2697 82.8245 18.5497 82.4245 18.7397C82.0345 18.9297 81.5445 19.0247 80.9545 19.0247ZM81.3595 17.9897C82.0395 17.9897 82.6195 17.7647 83.0995 17.3147C83.5895 16.8547 83.8995 16.2447 84.0295 15.4847L84.0745 15.2297C83.2445 15.3097 82.5345 15.4047 81.9445 15.5147C81.3545 15.6147 80.9045 15.7747 80.5945 15.9947C80.2845 16.2147 80.1295 16.5397 80.1295 16.9697C80.1295 17.3097 80.2495 17.5647 80.4895 17.7347C80.7295 17.9047 81.0195 17.9897 81.3595 17.9897ZM88.8668 18.8447C88.2868 18.8447 87.8868 18.7647 87.6668 18.6047C87.4568 18.4347 87.3518 18.1797 87.3518 17.8397C87.3518 17.6197 87.4018 17.2797 87.5018 16.8197L88.4468 12.4247H87.2018L87.4118 11.4047H88.6568L89.0618 9.54467H90.3518L89.9468 11.4047H91.3718L91.1618 12.4247H89.7368L88.8668 16.4597C88.8268 16.6397 88.7918 16.8047 88.7618 16.9547C88.7418 17.0947 88.7318 17.2047 88.7318 17.2847C88.7318 17.4447 88.7768 17.5597 88.8668 17.6297C88.9568 17.6897 89.1268 17.7197 89.3768 17.7197H90.0368L89.7968 18.8447H88.8668ZM92.2751 19.0247C92.0151 19.0247 91.7901 18.9297 91.6001 18.7397C91.4101 18.5497 91.3151 18.3247 91.3151 18.0647C91.3151 17.7947 91.4101 17.5647 91.6001 17.3747C91.7901 17.1847 92.0151 17.0897 92.2751 17.0897C92.5451 17.0897 92.7751 17.1847 92.9651 17.3747C93.1551 17.5647 93.2501 17.7947 93.2501 18.0647C93.2501 18.3247 93.1551 18.5497 92.9651 18.7397C92.7751 18.9297 92.5451 19.0247 92.2751 19.0247ZM98.4402 19.0247C97.8802 19.0247 97.4102 18.8997 97.0302 18.6497C96.6602 18.3897 96.3602 18.0447 96.1302 17.6147L95.5152 18.8447H94.5552L96.6852 8.82466H97.9752L97.2102 12.3947C97.5502 11.9547 97.9052 11.6597 98.2752 11.5097C98.6452 11.3597 98.9902 11.2847 99.3102 11.2847C100.02 11.2847 100.575 11.4397 100.975 11.7497C101.375 12.0597 101.66 12.4597 101.83 12.9497C102 13.4297 102.085 13.9297 102.085 14.4497C102.085 14.9897 102.005 15.5297 101.845 16.0697C101.695 16.5997 101.465 17.0897 101.155 17.5397C100.855 17.9897 100.475 18.3497 100.015 18.6197C99.5652 18.8897 99.0402 19.0247 98.4402 19.0247ZM98.3052 17.9447C98.7352 17.9447 99.1002 17.8347 99.4002 17.6147C99.7102 17.3847 99.9602 17.0947 100.15 16.7447C100.35 16.3947 100.495 16.0197 100.585 15.6197C100.685 15.2197 100.735 14.8397 100.735 14.4797C100.735 13.8597 100.6 13.3547 100.33 12.9647C100.06 12.5647 99.6352 12.3647 99.0552 12.3647C98.6452 12.3647 98.2802 12.4697 97.9602 12.6797C97.6502 12.8797 97.3852 13.1447 97.1652 13.4747C96.9552 13.8047 96.7952 14.1647 96.6852 14.5547C96.5752 14.9447 96.5202 15.3197 96.5202 15.6797C96.5202 16.0697 96.5852 16.4397 96.7152 16.7897C96.8452 17.1297 97.0402 17.4097 97.3002 17.6297C97.5702 17.8397 97.9052 17.9447 98.3052 17.9447ZM106.341 19.0247C105.361 19.0247 104.586 18.7397 104.016 18.1697C103.456 17.5997 103.176 16.8297 103.176 15.8597C103.176 14.9897 103.346 14.2097 103.686 13.5197C104.036 12.8297 104.526 12.2847 105.156 11.8847C105.796 11.4847 106.546 11.2847 107.406 11.2847C108.076 11.2847 108.631 11.4197 109.071 11.6897C109.511 11.9597 109.841 12.3297 110.061 12.7997C110.291 13.2597 110.406 13.7747 110.406 14.3447C110.406 14.7047 110.361 15.0797 110.271 15.4697H104.511C104.501 15.5397 104.496 15.6097 104.496 15.6797C104.496 15.7497 104.496 15.8197 104.496 15.8897C104.496 16.3997 104.591 16.8047 104.781 17.1047C104.981 17.3947 105.236 17.6047 105.546 17.7347C105.856 17.8547 106.171 17.9147 106.491 17.9147C106.911 17.9147 107.271 17.8497 107.571 17.7197C107.871 17.5797 108.126 17.3997 108.336 17.1797L109.506 17.5397C109.166 17.9797 108.731 18.3397 108.201 18.6197C107.681 18.8897 107.061 19.0247 106.341 19.0247ZM104.691 14.4497H109.086C109.096 14.3997 109.101 14.3547 109.101 14.3147C109.101 14.2747 109.101 14.2347 109.101 14.1947C109.101 13.8947 109.036 13.6047 108.906 13.3247C108.786 13.0447 108.586 12.8147 108.306 12.6347C108.036 12.4547 107.676 12.3647 107.226 12.3647C106.856 12.3647 106.496 12.4447 106.146 12.6047C105.796 12.7647 105.491 12.9997 105.231 13.3097C104.971 13.6197 104.791 13.9997 104.691 14.4497ZM113.3 18.8447C112.72 18.8447 112.32 18.7647 112.1 18.6047C111.89 18.4347 111.785 18.1797 111.785 17.8397C111.785 17.6197 111.835 17.2797 111.935 16.8197L112.88 12.4247H111.635L111.845 11.4047H113.09L113.495 9.54467H114.785L114.38 11.4047H115.805L115.595 12.4247H114.17L113.3 16.4597C113.26 16.6397 113.225 16.8047 113.195 16.9547C113.175 17.0947 113.165 17.2047 113.165 17.2847C113.165 17.4447 113.21 17.5597 113.3 17.6297C113.39 17.6897 113.56 17.7197 113.81 17.7197H114.47L114.23 18.8447H113.3ZM118.074 19.0247C117.434 19.0247 116.899 18.8497 116.469 18.4997C116.049 18.1497 115.839 17.6797 115.839 17.0897C115.839 16.5897 115.969 16.1747 116.229 15.8447C116.499 15.5147 116.844 15.2497 117.264 15.0497C117.694 14.8497 118.154 14.6997 118.644 14.5997C119.144 14.4897 119.629 14.4097 120.099 14.3597C120.569 14.3097 120.974 14.2647 121.314 14.2247C121.344 14.0847 121.369 13.9547 121.389 13.8347C121.409 13.7147 121.419 13.5997 121.419 13.4897C121.419 12.6997 120.959 12.3047 120.039 12.3047C119.579 12.3047 119.189 12.4097 118.869 12.6197C118.549 12.8197 118.304 13.0997 118.134 13.4597L117.009 13.1147C117.269 12.5547 117.649 12.1097 118.149 11.7797C118.649 11.4497 119.259 11.2847 119.979 11.2847C120.849 11.2847 121.519 11.4597 121.989 11.8097C122.459 12.1597 122.694 12.6997 122.694 13.4297C122.694 13.5997 122.679 13.7697 122.649 13.9397C122.629 14.1097 122.584 14.3497 122.514 14.6597C122.454 14.9697 122.359 15.4247 122.229 16.0247C122.099 16.6447 122.009 17.1847 121.959 17.6447C121.919 18.0947 121.894 18.4947 121.884 18.8447H120.699L120.639 17.8997C120.309 18.2697 119.944 18.5497 119.544 18.7397C119.154 18.9297 118.664 19.0247 118.074 19.0247ZM118.479 17.9897C119.159 17.9897 119.739 17.7647 120.219 17.3147C120.709 16.8547 121.019 16.2447 121.149 15.4847L121.194 15.2297C120.364 15.3097 119.654 15.4047 119.064 15.5147C118.474 15.6147 118.024 15.7747 117.714 15.9947C117.404 16.2147 117.249 16.5397 117.249 16.9697C117.249 17.3097 117.369 17.5647 117.609 17.7347C117.849 17.9047 118.139 17.9897 118.479 17.9897Z" fill="#464646"/>
</svg>
